{
	"asset":{
		"generator":"Khronos glTF Blender I/O v4.0.44",
		"version":"2.0"
	},
	"scene":0,
	"scenes":[
		{
			"name":"Scene",
			"nodes":[
				0
			]
		}
	],
	"nodes":[
		{
			"mesh":0,
			"name":"Pattern_5366728.002"
		}
	],
	"meshes":[
		{
			"name":"Pattern_5366728.002",
			"primitives":[
				{
					"attributes":{
						"POSITION":0,
						"NORMAL":1,
						"TEXCOORD_0":2
					},
					"indices":3
				}
			]
		}
	],
	"accessors":[
		{
			"bufferView":0,
			"componentType":5126,
			"count":72816,
			"max":[
				34.214759826660156,
				31.76886749267578,
				14.676264762878418
			],
			"min":[
				-34.76854705810547,
				-37.62218475341797,
				-13.679636001586914
			],
			"type":"VEC3"
		},
		{
			"bufferView":1,
			"componentType":5126,
			"count":72816,
			"type":"VEC3"
		},
		{
			"bufferView":2,
			"componentType":5126,
			"count":72816,
			"type":"VEC2"
		},
		{
			"bufferView":3,
			"componentType":5125,
			"count":416058,
			"type":"SCALAR"
		}
	],
	"bufferViews":[
		{
			"buffer":0,
			"byteLength":873792,
			"byteOffset":0,
			"target":34962
		},
		{
			"buffer":0,
			"byteLength":873792,
			"byteOffset":873792,
			"target":34962
		},
		{
			"buffer":0,
			"byteLength":582528,
			"byteOffset":1747584,
			"target":34962
		},
		{
			"buffer":0,
			"byteLength":1664232,
			"byteOffset":2330112,
			"target":34963
		}
	],
	"buffers":[
		{
			"byteLength":3994344,
			"uri":"shirt.bin"
		}
	]
}
